M48
; DRILL file KiCad 10.0.3 date 2026-06-07T23:00:01
; FORMAT={-:-/ absolute / metric / decimal}
; #@! TF.CreationDate,2026-06-07T23:00:01+09:00
; #@! TF.GenerationSoftware,Kicad,Pcbnew,10.0.3
; #@! TF.FileFunction,NonPlated,1,2,NPTH
FMAT,2
METRIC
; #@! TA.AperFunction,NonPlated,NPTH,ComponentDrill
T1C1.600
; #@! TA.AperFunction,NonPlated,NPTH,ComponentDrill
T2C1.700
; #@! TA.AperFunction,NonPlated,NPTH,ComponentDrill
T3C3.000
; #@! TA.AperFunction,NonPlated,NPTH,ComponentDrill
T4C3.400
; #@! TA.AperFunction,NonPlated,NPTH,ComponentDrill
T5C4.100
%
G90
G05
T1
X104.775Y-80.645
X104.775Y-90.805
X115.132Y-55.641
X115.132Y-115.809
X122.316Y-48.457
X122.316Y-122.993
X147.32Y-76.2
X147.32Y-133.35
X157.48Y-76.2
X157.48Y-133.35
X182.484Y-48.457
X182.484Y-122.993
X189.668Y-55.641
X189.668Y-115.809
X200.025Y-80.645
X200.025Y-90.805
T2
X85.725Y-80.225
X85.725Y-91.225
X101.365Y-42.468
X101.365Y-128.982
X109.143Y-34.69
X109.143Y-136.76
X146.9Y-95.25
X146.9Y-152.4
X157.9Y-95.25
X157.9Y-152.4
X195.657Y-34.69
X195.657Y-136.76
X203.435Y-42.468
X203.435Y-128.982
X219.075Y-80.225
X219.075Y-91.225
T3
X89.425Y-90.725
X91.625Y-85.725
X99.695Y-83.185
X102.235Y-89.535
X104.334Y-44.73
X109.426Y-42.751
X109.426Y-128.699
X111.405Y-133.791
X113.336Y-121.197
X114.234Y-52.947
X116.928Y-46.661
X119.622Y-123.891
X147.4Y-98.95
X148.59Y-73.66
X149.86Y-138.43
X152.4Y-101.15
X152.4Y-146.5
X154.94Y-71.12
X156.21Y-135.89
X157.4Y-148.7
X185.178Y-47.559
X187.872Y-124.789
X190.566Y-118.503
X191.464Y-50.253
X193.395Y-37.659
X195.374Y-42.751
X195.374Y-128.699
X200.466Y-126.72
X202.565Y-81.915
X205.105Y-88.265
X213.175Y-85.725
X215.375Y-80.725
T4
X85.725Y-85.725
X105.254Y-38.579
X105.254Y-132.871
X152.4Y-95.25
X152.4Y-152.4
X199.546Y-38.579
X199.546Y-132.871
X219.075Y-85.725
T5
X104.775Y-85.725
X118.724Y-52.049
X118.724Y-119.401
X152.4Y-76.2
X152.4Y-133.35
X186.076Y-52.049
X186.076Y-119.401
X200.025Y-85.725
M30
