M48
; DRILL file KiCad 10.0.3 date 2026-06-07T23:00:01
; FORMAT={-:-/ absolute / metric / decimal}
; #@! TF.CreationDate,2026-06-07T23:00:01+09:00
; #@! TF.GenerationSoftware,Kicad,Pcbnew,10.0.3
; #@! TF.FileFunction,Plated,1,2,PTH
FMAT,2
METRIC
; #@! TA.AperFunction,Plated,PTH,ComponentDrill
T1C0.300
%
G90
G05
T1
X88.225Y-93.025
X88.225Y-95.425
X90.425Y-81.025
X90.425Y-83.425
X90.625Y-93.025
X90.625Y-95.425
X92.825Y-81.025
X92.825Y-83.425
X98.495Y-78.685
X98.495Y-81.085
X100.162Y-47.205
X100.895Y-78.685
X100.895Y-81.085
X101.035Y-91.635
X101.035Y-94.035
X101.86Y-45.508
X101.86Y-48.902
X103.435Y-91.635
X103.435Y-94.035
X103.557Y-47.205
X105.254Y-126.225
X106.951Y-124.527
X106.951Y-127.922
X108.648Y-126.225
X109.305Y-118.864
X110.203Y-40.276
X110.203Y-55.281
X111.002Y-117.167
X111.002Y-120.561
X111.9Y-38.579
X111.9Y-41.973
X111.9Y-53.583
X111.9Y-56.978
X112.183Y-136.265
X112.699Y-118.864
X113.598Y-40.276
X113.598Y-55.281
X113.88Y-134.568
X113.88Y-137.963
X115.577Y-136.265
X117.564Y-44.327
X119.261Y-42.63
X119.261Y-46.024
X120.258Y-126.225
X120.958Y-44.327
X121.956Y-124.527
X121.956Y-127.922
X123.653Y-126.225
X142.7Y-97.75
X142.7Y-100.15
X144.09Y-72.46
X144.09Y-74.86
X145.1Y-97.75
X145.1Y-100.15
X145.36Y-137.23
X145.36Y-139.63
X146.49Y-72.46
X146.49Y-74.86
X147.7Y-145.3
X147.7Y-147.7
X147.76Y-137.23
X147.76Y-139.63
X150.1Y-145.3
X150.1Y-147.7
X154.7Y-99.95
X154.7Y-102.35
X157.04Y-69.92
X157.04Y-72.32
X157.1Y-99.95
X157.1Y-102.35
X158.31Y-134.69
X158.31Y-137.09
X159.44Y-69.92
X159.44Y-72.32
X159.7Y-147.5
X159.7Y-149.9
X160.71Y-134.69
X160.71Y-137.09
X162.1Y-147.5
X162.1Y-149.9
X181.147Y-45.225
X182.844Y-43.528
X182.844Y-46.923
X183.842Y-127.123
X184.542Y-45.225
X185.539Y-125.426
X185.539Y-128.82
X187.236Y-127.123
X189.223Y-35.185
X190.92Y-33.487
X190.92Y-36.882
X191.202Y-116.169
X191.202Y-131.174
X192.101Y-52.586
X192.617Y-35.185
X192.9Y-114.472
X192.9Y-117.867
X192.9Y-129.477
X192.9Y-132.871
X193.798Y-50.889
X193.798Y-54.283
X194.597Y-116.169
X194.597Y-131.174
X195.495Y-52.586
X196.152Y-45.225
X197.849Y-43.528
X197.849Y-46.923
X199.546Y-45.225
X201.243Y-124.245
X201.365Y-77.415
X201.365Y-79.815
X202.94Y-122.548
X202.94Y-125.942
X203.765Y-77.415
X203.765Y-79.815
X203.905Y-90.365
X203.905Y-92.765
X204.638Y-124.245
X206.305Y-90.365
X206.305Y-92.765
X211.975Y-88.025
X211.975Y-90.425
X214.175Y-76.025
X214.175Y-78.425
X214.375Y-88.025
X214.375Y-90.425
X216.575Y-76.025
X216.575Y-78.425
M30
