%TF.GenerationSoftware,KiCad,Pcbnew,10.0.3*%
%TF.CreationDate,2026-06-08T12:14:35+09:00*%
%TF.ProjectId,PCBAssemblyConverter_sample_pcb,50434241-7373-4656-9d62-6c79436f6e76,rev?*%
%TF.SameCoordinates,Original*%
%TF.FileFunction,Soldermask,Bot*%
%TF.FilePolarity,Negative*%
%FSLAX46Y46*%
G04 Gerber Fmt 4.6, Leading zero omitted, Abs format (unit mm)*
G04 Created by KiCad (PCBNEW 10.0.3) date 2026-06-08 12:14:35*
%MOMM*%
%LPD*%
G01*
G04 APERTURE LIST*
G04 Aperture macros list*
%AMRoundRect*
0 Rectangle with rounded corners*
0 $1 Rounding radius*
0 $2 $3 $4 $5 $6 $7 $8 $9 X,Y pos of 4 corners*
0 Add a 4 corners polygon primitive as box body*
4,1,4,$2,$3,$4,$5,$6,$7,$8,$9,$2,$3,0*
0 Add four circle primitives for the rounded corners*
1,1,$1+$1,$2,$3*
1,1,$1+$1,$4,$5*
1,1,$1+$1,$6,$7*
1,1,$1+$1,$8,$9*
0 Add four rect primitives between the rounded corners*
20,1,$1+$1,$2,$3,$4,$5,0*
20,1,$1+$1,$4,$5,$6,$7,0*
20,1,$1+$1,$6,$7,$8,$9,0*
20,1,$1+$1,$8,$9,$2,$3,0*%
G04 Aperture macros list end*
%ADD10C,0.120000*%
%ADD11C,0.100000*%
%ADD12C,3.000000*%
%ADD13C,1.600000*%
%ADD14C,4.100000*%
%ADD15C,1.700000*%
%ADD16C,3.400000*%
%ADD17RoundRect,0.225000X-0.106066X0.424264X-0.424264X0.106066X0.106066X-0.424264X0.424264X-0.106066X0*%
%ADD18RoundRect,0.225000X0.424264X0.106066X0.106066X0.424264X-0.424264X-0.106066X-0.106066X-0.424264X0*%
%ADD19RoundRect,0.225000X0.106066X-0.424264X0.424264X-0.106066X-0.106066X0.424264X-0.424264X0.106066X0*%
%ADD20RoundRect,0.525400X0.900400X0.525400X-0.900400X0.525400X-0.900400X-0.525400X0.900400X-0.525400X0*%
%ADD21RoundRect,0.275000X-0.275000X0.975000X-0.275000X-0.975000X0.275000X-0.975000X0.275000X0.975000X0*%
%ADD22RoundRect,0.225000X-0.424264X-0.106066X-0.106066X-0.424264X0.424264X0.106066X0.106066X0.424264X0*%
%ADD23RoundRect,0.225000X-0.375000X0.225000X-0.375000X-0.225000X0.375000X-0.225000X0.375000X0.225000X0*%
%ADD24RoundRect,0.225000X0.225000X0.375000X-0.225000X0.375000X-0.225000X-0.375000X0.225000X-0.375000X0*%
%ADD25RoundRect,0.225000X0.375000X-0.225000X0.375000X0.225000X-0.375000X0.225000X-0.375000X-0.225000X0*%
%ADD26RoundRect,0.225000X-0.225000X-0.375000X0.225000X-0.375000X0.225000X0.375000X-0.225000X0.375000X0*%
G04 APERTURE END LIST*
%TO.C,SW7*%
D10*
X203565000Y-77815000D02*
X203565000Y-79415000D01*
X203365000Y-79615000D02*
X201765000Y-79615000D01*
X201565000Y-79415000D02*
X201565000Y-77815000D01*
X201765000Y-77615000D02*
X203365000Y-77615000D01*
D11*
X203365000Y-79615000D02*
X201765000Y-79615000D01*
X201565000Y-79415000D01*
X201565000Y-77815000D01*
X201765000Y-77615000D01*
X203365000Y-77615000D01*
X203565000Y-77815000D01*
X203565000Y-79415000D01*
X203365000Y-79615000D01*
G36*
X203565000Y-77815000D02*
G01*
X203565000Y-79415000D01*
X203365000Y-79615000D01*
X201765000Y-79615000D01*
X201565000Y-79415000D01*
X201565000Y-77815000D01*
X201765000Y-77615000D01*
X203365000Y-77615000D01*
X203565000Y-77815000D01*
G37*
D10*
X205905000Y-90565000D02*
X204305000Y-90565000D01*
X204105000Y-90765000D02*
X204105000Y-92365000D01*
X204305000Y-92565000D02*
X205905000Y-92565000D01*
X206105000Y-90765000D02*
X206105000Y-92365000D01*
D11*
X205905000Y-92565000D02*
X204305000Y-92565000D01*
X204105000Y-92365000D01*
X204105000Y-90765000D01*
X204305000Y-90565000D01*
X205905000Y-90565000D01*
X206105000Y-90765000D01*
X206105000Y-92365000D01*
X205905000Y-92565000D01*
G36*
X206105000Y-90765000D02*
G01*
X206105000Y-92365000D01*
X205905000Y-92565000D01*
X204305000Y-92565000D01*
X204105000Y-92365000D01*
X204105000Y-90765000D01*
X204305000Y-90565000D01*
X205905000Y-90565000D01*
X206105000Y-90765000D01*
G37*
D10*
X204305000Y-92565000D02*
G75*
G02*
X204105000Y-92365000I0J200000D01*
G01*
X204105000Y-90765000D02*
G75*
G02*
X204305000Y-90565000I200000J0D01*
G01*
X206105000Y-92365000D02*
G75*
G02*
X205905000Y-92565000I-200000J0D01*
G01*
X205905000Y-90565000D02*
G75*
G02*
X206105000Y-90765000I0J-200000D01*
G01*
X201565000Y-77815000D02*
G75*
G02*
X201765000Y-77615000I200000J0D01*
G01*
X201765000Y-79615000D02*
G75*
G02*
X201565000Y-79415000I0J200000D01*
G01*
X203565000Y-79415000D02*
G75*
G02*
X203365000Y-79615000I-200000J0D01*
G01*
X203365000Y-77615000D02*
G75*
G02*
X203565000Y-77815000I0J-200000D01*
G01*
%TO.C,SW5*%
X160310000Y-136890000D02*
X158710000Y-136890000D01*
X158510000Y-136690000D02*
X158510000Y-135090000D01*
X158710000Y-134890000D02*
X160310000Y-134890000D01*
X160510000Y-135090000D02*
X160510000Y-136690000D01*
D11*
X158510000Y-136690000D02*
X158510000Y-135090000D01*
X158710000Y-134890000D01*
X160310000Y-134890000D01*
X160510000Y-135090000D01*
X160510000Y-136690000D01*
X160310000Y-136890000D01*
X158710000Y-136890000D01*
X158510000Y-136690000D01*
G36*
X160510000Y-135090000D02*
G01*
X160510000Y-136690000D01*
X160310000Y-136890000D01*
X158710000Y-136890000D01*
X158510000Y-136690000D01*
X158510000Y-135090000D01*
X158710000Y-134890000D01*
X160310000Y-134890000D01*
X160510000Y-135090000D01*
G37*
D10*
X147560000Y-139230000D02*
X147560000Y-137630000D01*
X147360000Y-137430000D02*
X145760000Y-137430000D01*
X145560000Y-137630000D02*
X145560000Y-139230000D01*
X147360000Y-139430000D02*
X145760000Y-139430000D01*
D11*
X145560000Y-139230000D02*
X145560000Y-137630000D01*
X145760000Y-137430000D01*
X147360000Y-137430000D01*
X147560000Y-137630000D01*
X147560000Y-139230000D01*
X147360000Y-139430000D01*
X145760000Y-139430000D01*
X145560000Y-139230000D01*
G36*
X147560000Y-137630000D02*
G01*
X147560000Y-139230000D01*
X147360000Y-139430000D01*
X145760000Y-139430000D01*
X145560000Y-139230000D01*
X145560000Y-137630000D01*
X145760000Y-137430000D01*
X147360000Y-137430000D01*
X147560000Y-137630000D01*
G37*
D10*
X145560000Y-137630000D02*
G75*
G02*
X145760000Y-137430000I200000J0D01*
G01*
X147360000Y-137430000D02*
G75*
G02*
X147560000Y-137630000I0J-200000D01*
G01*
X145760000Y-139430000D02*
G75*
G02*
X145560000Y-139230000I0J200000D01*
G01*
X147560000Y-139230000D02*
G75*
G02*
X147360000Y-139430000I-200000J0D01*
G01*
X160310000Y-134890000D02*
G75*
G02*
X160510000Y-135090000I0J-200000D01*
G01*
X158510000Y-135090000D02*
G75*
G02*
X158710000Y-134890000I200000J0D01*
G01*
X158710000Y-136890000D02*
G75*
G02*
X158510000Y-136690000I0J200000D01*
G01*
X160510000Y-136690000D02*
G75*
G02*
X160310000Y-136890000I-200000J0D01*
G01*
%TO.C,SW6*%
X194172333Y-116310903D02*
X193040962Y-117442274D01*
X192758119Y-117442274D02*
X191626748Y-116310903D01*
X191626748Y-116028061D02*
X192758119Y-114896690D01*
X193040962Y-114896690D02*
X194172333Y-116028061D01*
D11*
X192758119Y-117442274D02*
X191626748Y-116310903D01*
X191626748Y-116028061D01*
X192758119Y-114896690D01*
X193040962Y-114896690D01*
X194172333Y-116028061D01*
X194172333Y-116310903D01*
X193040962Y-117442274D01*
X192758119Y-117442274D01*
G36*
X194172333Y-116028061D02*
G01*
X194172333Y-116310903D01*
X193040962Y-117442274D01*
X192758119Y-117442274D01*
X191626748Y-116310903D01*
X191626748Y-116028061D01*
X192758119Y-114896690D01*
X193040962Y-114896690D01*
X194172333Y-116028061D01*
G37*
D10*
X186811351Y-126981145D02*
X185679980Y-125849774D01*
X185397137Y-125849774D02*
X184265767Y-126981145D01*
X184265767Y-127263987D02*
X185397137Y-128395358D01*
X186811351Y-127263987D02*
X185679980Y-128395358D01*
D11*
X185397137Y-128395358D02*
X184265767Y-127263987D01*
X184265767Y-126981145D01*
X185397137Y-125849774D01*
X185679980Y-125849774D01*
X186811351Y-126981145D01*
X186811351Y-127263987D01*
X185679980Y-128395358D01*
X185397137Y-128395358D01*
G36*
X186811351Y-126981145D02*
G01*
X186811351Y-127263987D01*
X185679980Y-128395358D01*
X185397137Y-128395358D01*
X184265767Y-127263987D01*
X184265767Y-126981145D01*
X185397137Y-125849774D01*
X185679980Y-125849774D01*
X186811351Y-126981145D01*
G37*
D10*
X184265767Y-127263987D02*
G75*
G02*
X184265767Y-126981145I141421J141421D01*
G01*
X185397137Y-125849774D02*
G75*
G02*
X185679981Y-125849773I141422J-141421D01*
G01*
X185679980Y-128395358D02*
G75*
G02*
X185397138Y-128395358I-141421J141421D01*
G01*
X186811351Y-126981145D02*
G75*
G02*
X186811351Y-127263987I-141421J-141421D01*
G01*
X192758119Y-114896690D02*
G75*
G02*
X193040961Y-114896690I141421J-141421D01*
G01*
X191626748Y-116310903D02*
G75*
G02*
X191626748Y-116028061I141422J141421D01*
G01*
X193040962Y-117442274D02*
G75*
G02*
X192758118Y-117442275I-141422J141421D01*
G01*
X194172333Y-116028061D02*
G75*
G02*
X194172333Y-116310903I-141422J-141421D01*
G01*
%TO.C,SW8*%
X182985903Y-43952667D02*
X184117274Y-45084038D01*
X184117274Y-45366881D02*
X182985903Y-46498252D01*
X182703061Y-46498252D02*
X181571690Y-45366881D01*
X181571690Y-45084038D02*
X182703061Y-43952667D01*
D11*
X184117274Y-45366881D02*
X182985903Y-46498252D01*
X182703061Y-46498252D01*
X181571690Y-45366881D01*
X181571690Y-45084038D01*
X182703061Y-43952667D01*
X182985903Y-43952667D01*
X184117274Y-45084038D01*
X184117274Y-45366881D01*
G36*
X184117274Y-45084038D02*
G01*
X184117274Y-45366881D01*
X182985903Y-46498252D01*
X182703061Y-46498252D01*
X181571690Y-45366881D01*
X181571690Y-45084038D01*
X182703061Y-43952667D01*
X182985903Y-43952667D01*
X184117274Y-45084038D01*
G37*
D10*
X193656145Y-51313649D02*
X192524774Y-52445020D01*
X192524774Y-52727863D02*
X193656145Y-53859233D01*
X193938987Y-53859233D02*
X195070358Y-52727863D01*
X193938987Y-51313649D02*
X195070358Y-52445020D01*
D11*
X195070358Y-52727863D02*
X193938987Y-53859233D01*
X193656145Y-53859233D01*
X192524774Y-52727863D01*
X192524774Y-52445020D01*
X193656145Y-51313649D01*
X193938987Y-51313649D01*
X195070358Y-52445020D01*
X195070358Y-52727863D01*
G36*
X195070358Y-52445020D02*
G01*
X195070358Y-52727863D01*
X193938987Y-53859233D01*
X193656145Y-53859233D01*
X192524774Y-52727863D01*
X192524774Y-52445020D01*
X193656145Y-51313649D01*
X193938987Y-51313649D01*
X195070358Y-52445020D01*
G37*
D10*
X193938987Y-53859233D02*
G75*
G02*
X193656145Y-53859233I-141421J141421D01*
G01*
X192524774Y-52727863D02*
G75*
G02*
X192524773Y-52445019I141421J141422D01*
G01*
X195070358Y-52445020D02*
G75*
G02*
X195070358Y-52727862I-141421J-141421D01*
G01*
X193656145Y-51313649D02*
G75*
G02*
X193938987Y-51313649I141421J-141421D01*
G01*
X181571690Y-45366881D02*
G75*
G02*
X181571690Y-45084039I141421J141421D01*
G01*
X182985903Y-46498252D02*
G75*
G02*
X182703061Y-46498252I-141421J141422D01*
G01*
X184117274Y-45084038D02*
G75*
G02*
X184117275Y-45366882I-141421J-141422D01*
G01*
X182703061Y-43952667D02*
G75*
G02*
X182985903Y-43952667I141421J-141422D01*
G01*
%TO.C,SW4*%
X121814097Y-127497333D02*
X120682726Y-126365962D01*
X120682726Y-126083119D02*
X121814097Y-124951748D01*
X122096939Y-124951748D02*
X123228310Y-126083119D01*
X123228310Y-126365962D02*
X122096939Y-127497333D01*
D11*
X120682726Y-126083119D02*
X121814097Y-124951748D01*
X122096939Y-124951748D01*
X123228310Y-126083119D01*
X123228310Y-126365962D01*
X122096939Y-127497333D01*
X121814097Y-127497333D01*
X120682726Y-126365962D01*
X120682726Y-126083119D01*
G36*
X123228310Y-126083119D02*
G01*
X123228310Y-126365962D01*
X122096939Y-127497333D01*
X121814097Y-127497333D01*
X120682726Y-126365962D01*
X120682726Y-126083119D01*
X121814097Y-124951748D01*
X122096939Y-124951748D01*
X123228310Y-126083119D01*
G37*
D10*
X111143855Y-120136351D02*
X112275226Y-119004980D01*
X112275226Y-118722137D02*
X111143855Y-117590767D01*
X110861013Y-117590767D02*
X109729642Y-118722137D01*
X110861013Y-120136351D02*
X109729642Y-119004980D01*
D11*
X109729642Y-118722137D02*
X110861013Y-117590767D01*
X111143855Y-117590767D01*
X112275226Y-118722137D01*
X112275226Y-119004980D01*
X111143855Y-120136351D01*
X110861013Y-120136351D01*
X109729642Y-119004980D01*
X109729642Y-118722137D01*
G36*
X112275226Y-118722137D02*
G01*
X112275226Y-119004980D01*
X111143855Y-120136351D01*
X110861013Y-120136351D01*
X109729642Y-119004980D01*
X109729642Y-118722137D01*
X110861013Y-117590767D01*
X111143855Y-117590767D01*
X112275226Y-118722137D01*
G37*
D10*
X110861013Y-117590767D02*
G75*
G02*
X111143855Y-117590767I141421J-141421D01*
G01*
X112275226Y-118722137D02*
G75*
G02*
X112275227Y-119004981I-141421J-141422D01*
G01*
X109729642Y-119004980D02*
G75*
G02*
X109729642Y-118722138I141421J141421D01*
G01*
X111143855Y-120136351D02*
G75*
G02*
X110861013Y-120136351I-141421J141421D01*
G01*
X123228310Y-126083119D02*
G75*
G02*
X123228310Y-126365961I-141421J-141421D01*
G01*
X121814097Y-124951748D02*
G75*
G02*
X122096939Y-124951748I141421J-141422D01*
G01*
X120682726Y-126365962D02*
G75*
G02*
X120682725Y-126083118I141421J141422D01*
G01*
X122096939Y-127497333D02*
G75*
G02*
X121814097Y-127497333I-141421J141422D01*
G01*
%TO.C,SW1*%
X144490000Y-72660000D02*
X146090000Y-72660000D01*
X146290000Y-72860000D02*
X146290000Y-74460000D01*
X146090000Y-74660000D02*
X144490000Y-74660000D01*
X144290000Y-74460000D02*
X144290000Y-72860000D01*
D11*
X146290000Y-72860000D02*
X146290000Y-74460000D01*
X146090000Y-74660000D01*
X144490000Y-74660000D01*
X144290000Y-74460000D01*
X144290000Y-72860000D01*
X144490000Y-72660000D01*
X146090000Y-72660000D01*
X146290000Y-72860000D01*
G36*
X146290000Y-72860000D02*
G01*
X146290000Y-74460000D01*
X146090000Y-74660000D01*
X144490000Y-74660000D01*
X144290000Y-74460000D01*
X144290000Y-72860000D01*
X144490000Y-72660000D01*
X146090000Y-72660000D01*
X146290000Y-72860000D01*
G37*
D10*
X157240000Y-70320000D02*
X157240000Y-71920000D01*
X157440000Y-72120000D02*
X159040000Y-72120000D01*
X159240000Y-71920000D02*
X159240000Y-70320000D01*
X157440000Y-70120000D02*
X159040000Y-70120000D01*
D11*
X159240000Y-70320000D02*
X159240000Y-71920000D01*
X159040000Y-72120000D01*
X157440000Y-72120000D01*
X157240000Y-71920000D01*
X157240000Y-70320000D01*
X157440000Y-70120000D01*
X159040000Y-70120000D01*
X159240000Y-70320000D01*
G36*
X159240000Y-70320000D02*
G01*
X159240000Y-71920000D01*
X159040000Y-72120000D01*
X157440000Y-72120000D01*
X157240000Y-71920000D01*
X157240000Y-70320000D01*
X157440000Y-70120000D01*
X159040000Y-70120000D01*
X159240000Y-70320000D01*
G37*
D10*
X159240000Y-71920000D02*
G75*
G02*
X159040000Y-72120000I-200000J0D01*
G01*
X157440000Y-72120000D02*
G75*
G02*
X157240000Y-71920000I0J200000D01*
G01*
X159040000Y-70120000D02*
G75*
G02*
X159240000Y-70320000I0J-200000D01*
G01*
X157240000Y-70320000D02*
G75*
G02*
X157440000Y-70120000I200000J0D01*
G01*
X144490000Y-74660000D02*
G75*
G02*
X144290000Y-74460000I0J200000D01*
G01*
X146290000Y-74460000D02*
G75*
G02*
X146090000Y-74660000I-200000J0D01*
G01*
X146090000Y-72660000D02*
G75*
G02*
X146290000Y-72860000I0J-200000D01*
G01*
X144290000Y-72860000D02*
G75*
G02*
X144490000Y-72660000I200000J0D01*
G01*
%TO.C,SW2*%
X110627667Y-55139097D02*
X111759038Y-54007726D01*
X112041881Y-54007726D02*
X113173252Y-55139097D01*
X113173252Y-55421939D02*
X112041881Y-56553310D01*
X111759038Y-56553310D02*
X110627667Y-55421939D01*
D11*
X112041881Y-54007726D02*
X113173252Y-55139097D01*
X113173252Y-55421939D01*
X112041881Y-56553310D01*
X111759038Y-56553310D01*
X110627667Y-55421939D01*
X110627667Y-55139097D01*
X111759038Y-54007726D01*
X112041881Y-54007726D01*
G36*
X113173252Y-55139097D02*
G01*
X113173252Y-55421939D01*
X112041881Y-56553310D01*
X111759038Y-56553310D01*
X110627667Y-55421939D01*
X110627667Y-55139097D01*
X111759038Y-54007726D01*
X112041881Y-54007726D01*
X113173252Y-55139097D01*
G37*
D10*
X117988649Y-44468855D02*
X119120020Y-45600226D01*
X119402863Y-45600226D02*
X120534233Y-44468855D01*
X120534233Y-44186013D02*
X119402863Y-43054642D01*
X117988649Y-44186013D02*
X119120020Y-43054642D01*
D11*
X119402863Y-43054642D02*
X120534233Y-44186013D01*
X120534233Y-44468855D01*
X119402863Y-45600226D01*
X119120020Y-45600226D01*
X117988649Y-44468855D01*
X117988649Y-44186013D01*
X119120020Y-43054642D01*
X119402863Y-43054642D01*
G36*
X120534233Y-44186013D02*
G01*
X120534233Y-44468855D01*
X119402863Y-45600226D01*
X119120020Y-45600226D01*
X117988649Y-44468855D01*
X117988649Y-44186013D01*
X119120020Y-43054642D01*
X119402863Y-43054642D01*
X120534233Y-44186013D01*
G37*
D10*
X120534233Y-44186013D02*
G75*
G02*
X120534233Y-44468855I-141421J-141421D01*
G01*
X119402863Y-45600226D02*
G75*
G02*
X119120019Y-45600227I-141422J141421D01*
G01*
X119120020Y-43054642D02*
G75*
G02*
X119402862Y-43054642I141421J-141421D01*
G01*
X117988649Y-44468855D02*
G75*
G02*
X117988649Y-44186013I141421J141421D01*
G01*
X112041881Y-56553310D02*
G75*
G02*
X111759039Y-56553310I-141421J141421D01*
G01*
X113173252Y-55139097D02*
G75*
G02*
X113173252Y-55421939I-141422J-141421D01*
G01*
X111759038Y-54007726D02*
G75*
G02*
X112041882Y-54007725I141422J-141421D01*
G01*
X110627667Y-55421939D02*
G75*
G02*
X110627667Y-55139097I141422J141421D01*
G01*
%TO.C,SW3*%
X101235000Y-93635000D02*
X101235000Y-92035000D01*
X101435000Y-91835000D02*
X103035000Y-91835000D01*
X103235000Y-92035000D02*
X103235000Y-93635000D01*
X103035000Y-93835000D02*
X101435000Y-93835000D01*
D11*
X101435000Y-91835000D02*
X103035000Y-91835000D01*
X103235000Y-92035000D01*
X103235000Y-93635000D01*
X103035000Y-93835000D01*
X101435000Y-93835000D01*
X101235000Y-93635000D01*
X101235000Y-92035000D01*
X101435000Y-91835000D01*
G36*
X103235000Y-92035000D02*
G01*
X103235000Y-93635000D01*
X103035000Y-93835000D01*
X101435000Y-93835000D01*
X101235000Y-93635000D01*
X101235000Y-92035000D01*
X101435000Y-91835000D01*
X103035000Y-91835000D01*
X103235000Y-92035000D01*
G37*
D10*
X98895000Y-80885000D02*
X100495000Y-80885000D01*
X100695000Y-80685000D02*
X100695000Y-79085000D01*
X100495000Y-78885000D02*
X98895000Y-78885000D01*
X98695000Y-80685000D02*
X98695000Y-79085000D01*
D11*
X98895000Y-78885000D02*
X100495000Y-78885000D01*
X100695000Y-79085000D01*
X100695000Y-80685000D01*
X100495000Y-80885000D01*
X98895000Y-80885000D01*
X98695000Y-80685000D01*
X98695000Y-79085000D01*
X98895000Y-78885000D01*
G36*
X100695000Y-79085000D02*
G01*
X100695000Y-80685000D01*
X100495000Y-80885000D01*
X98895000Y-80885000D01*
X98695000Y-80685000D01*
X98695000Y-79085000D01*
X98895000Y-78885000D01*
X100495000Y-78885000D01*
X100695000Y-79085000D01*
G37*
D10*
X100495000Y-78885000D02*
G75*
G02*
X100695000Y-79085000I0J-200000D01*
G01*
X100695000Y-80685000D02*
G75*
G02*
X100495000Y-80885000I-200000J0D01*
G01*
X98695000Y-79085000D02*
G75*
G02*
X98895000Y-78885000I200000J0D01*
G01*
X98895000Y-80885000D02*
G75*
G02*
X98695000Y-80685000I0J200000D01*
G01*
X103235000Y-93635000D02*
G75*
G02*
X103035000Y-93835000I-200000J0D01*
G01*
X103035000Y-91835000D02*
G75*
G02*
X103235000Y-92035000I0J-200000D01*
G01*
X101235000Y-92035000D02*
G75*
G02*
X101435000Y-91835000I200000J0D01*
G01*
X101435000Y-93835000D02*
G75*
G02*
X101235000Y-93635000I0J200000D01*
G01*
%TO.C,SW15*%
X212175000Y-88425000D02*
X212175000Y-90025000D01*
X212375000Y-90225000D02*
X213975000Y-90225000D01*
X213975000Y-88225000D02*
X212375000Y-88225000D01*
X214175000Y-90025000D02*
X214175000Y-88425000D01*
X214375000Y-76425000D02*
X214375000Y-78025000D01*
X214575000Y-78225000D02*
X216175000Y-78225000D01*
X216175000Y-76225000D02*
X214575000Y-76225000D01*
X216375000Y-78025000D02*
X216375000Y-76425000D01*
X212175000Y-88425000D02*
G75*
G02*
X212375000Y-88225000I200000J0D01*
G01*
X212375000Y-90225000D02*
G75*
G02*
X212175000Y-90025000I0J200000D01*
G01*
X213975000Y-88225000D02*
G75*
G02*
X214175000Y-88425000I0J-200000D01*
G01*
X214175000Y-90025000D02*
G75*
G02*
X213975000Y-90225000I-200000J0D01*
G01*
X214375000Y-76425000D02*
G75*
G02*
X214575000Y-76225000I200001J-1D01*
G01*
X214575000Y-78225000D02*
G75*
G02*
X214375000Y-78025000I1J200001D01*
G01*
X216175000Y-76225000D02*
G75*
G02*
X216375000Y-76425000I-1J-200001D01*
G01*
X216375000Y-78025000D02*
G75*
G02*
X216175000Y-78225000I-200001J1D01*
G01*
D11*
X212375000Y-88225000D02*
X213975000Y-88225000D01*
X214175000Y-88425000D01*
X214175000Y-90025000D01*
X213975000Y-90225000D01*
X212375000Y-90225000D01*
X212175000Y-90025000D01*
X212175000Y-88425000D01*
X212375000Y-88225000D01*
G36*
X214175000Y-88425000D02*
G01*
X214175000Y-90025000D01*
X213975000Y-90225000D01*
X212375000Y-90225000D01*
X212175000Y-90025000D01*
X212175000Y-88425000D01*
X212375000Y-88225000D01*
X213975000Y-88225000D01*
X214175000Y-88425000D01*
G37*
X214575000Y-76225000D02*
X216175000Y-76225000D01*
X216375000Y-76425000D01*
X216375000Y-78025000D01*
X216175000Y-78225000D01*
X214575000Y-78225000D01*
X214375000Y-78025000D01*
X214375000Y-76425000D01*
X214575000Y-76225000D01*
G36*
X216375000Y-76425000D02*
G01*
X216375000Y-78025000D01*
X216175000Y-78225000D01*
X214575000Y-78225000D01*
X214375000Y-78025000D01*
X214375000Y-76425000D01*
X214575000Y-76225000D01*
X216175000Y-76225000D01*
X216375000Y-76425000D01*
G37*
%TO.C,SW11*%
D10*
X88425000Y-93425000D02*
X88425000Y-95025000D01*
X88625000Y-95225000D02*
X90225000Y-95225000D01*
X90225000Y-93225000D02*
X88625000Y-93225000D01*
X90425000Y-95025000D02*
X90425000Y-93425000D01*
X90625000Y-81425000D02*
X90625000Y-83025000D01*
X90825000Y-83225000D02*
X92425000Y-83225000D01*
X92425000Y-81225000D02*
X90825000Y-81225000D01*
X92625000Y-83025000D02*
X92625000Y-81425000D01*
X88425000Y-93425000D02*
G75*
G02*
X88625000Y-93225000I200001J-1D01*
G01*
X88625000Y-95225000D02*
G75*
G02*
X88425000Y-95025000I1J200001D01*
G01*
X90225000Y-93225000D02*
G75*
G02*
X90425000Y-93425000I-1J-200001D01*
G01*
X90425000Y-95025000D02*
G75*
G02*
X90225000Y-95225000I-200001J1D01*
G01*
X90625000Y-81425000D02*
G75*
G02*
X90825000Y-81225000I200000J0D01*
G01*
X90825000Y-83225000D02*
G75*
G02*
X90625000Y-83025000I0J200000D01*
G01*
X92425000Y-81225000D02*
G75*
G02*
X92625000Y-81425000I0J-200000D01*
G01*
X92625000Y-83025000D02*
G75*
G02*
X92425000Y-83225000I-200000J0D01*
G01*
D11*
X90225000Y-95225000D02*
X88625000Y-95225000D01*
X88425000Y-95025000D01*
X88425000Y-93425000D01*
X88625000Y-93225000D01*
X90225000Y-93225000D01*
X90425000Y-93425000D01*
X90425000Y-95025000D01*
X90225000Y-95225000D01*
G36*
X90425000Y-93425000D02*
G01*
X90425000Y-95025000D01*
X90225000Y-95225000D01*
X88625000Y-95225000D01*
X88425000Y-95025000D01*
X88425000Y-93425000D01*
X88625000Y-93225000D01*
X90225000Y-93225000D01*
X90425000Y-93425000D01*
G37*
X92425000Y-83225000D02*
X90825000Y-83225000D01*
X90625000Y-83025000D01*
X90625000Y-81425000D01*
X90825000Y-81225000D01*
X92425000Y-81225000D01*
X92625000Y-81425000D01*
X92625000Y-83025000D01*
X92425000Y-83225000D01*
G36*
X92625000Y-81425000D02*
G01*
X92625000Y-83025000D01*
X92425000Y-83225000D01*
X90825000Y-83225000D01*
X90625000Y-83025000D01*
X90625000Y-81425000D01*
X90825000Y-81225000D01*
X92425000Y-81225000D01*
X92625000Y-81425000D01*
G37*
%TO.C,SW12*%
D10*
X105677919Y-126365963D02*
X106809290Y-127497333D01*
X106809290Y-124951749D02*
X105677919Y-126083120D01*
X107092133Y-127497333D02*
X108223503Y-126365963D01*
X108223503Y-126083120D02*
X107092133Y-124951749D01*
X112607566Y-136406879D02*
X113738936Y-137538250D01*
X113738936Y-134992665D02*
X112607566Y-136124036D01*
X114021779Y-137538250D02*
X115153150Y-136406879D01*
X115153150Y-136124036D02*
X114021779Y-134992665D01*
X105677919Y-126365963D02*
G75*
G02*
X105677918Y-126083119I141421J141422D01*
G01*
X106809290Y-124951749D02*
G75*
G02*
X107092132Y-124951749I141421J-141421D01*
G01*
X107092133Y-127497333D02*
G75*
G02*
X106809289Y-127497334I-141422J141421D01*
G01*
X108223503Y-126083120D02*
G75*
G02*
X108223503Y-126365962I-141421J-141421D01*
G01*
X112607566Y-136406879D02*
G75*
G02*
X112607566Y-136124037I141421J141421D01*
G01*
X113738936Y-134992665D02*
G75*
G02*
X114021779Y-134992665I141421J-141425D01*
G01*
X114021779Y-137538250D02*
G75*
G02*
X113738936Y-137538250I-141421J141423D01*
G01*
X115153150Y-136124036D02*
G75*
G02*
X115153151Y-136406879I-141423J-141422D01*
G01*
D11*
X108223503Y-126365963D02*
X107092133Y-127497333D01*
X106809290Y-127497333D01*
X105677919Y-126365963D01*
X105677919Y-126083120D01*
X106809290Y-124951749D01*
X107092133Y-124951749D01*
X108223503Y-126083120D01*
X108223503Y-126365963D01*
G36*
X108223503Y-126083120D02*
G01*
X108223503Y-126365963D01*
X107092133Y-127497333D01*
X106809290Y-127497333D01*
X105677919Y-126365963D01*
X105677919Y-126083120D01*
X106809290Y-124951749D01*
X107092133Y-124951749D01*
X108223503Y-126083120D01*
G37*
X115153150Y-136406879D02*
X114021779Y-137538250D01*
X113738936Y-137538250D01*
X112607566Y-136406879D01*
X112607566Y-136124036D01*
X113738936Y-134992665D01*
X114021779Y-134992665D01*
X115153150Y-136124036D01*
X115153150Y-136406879D01*
G36*
X115153150Y-136124036D02*
G01*
X115153150Y-136406879D01*
X114021779Y-137538250D01*
X113738936Y-137538250D01*
X112607566Y-136406879D01*
X112607566Y-136124036D01*
X113738936Y-134992665D01*
X114021779Y-134992665D01*
X115153150Y-136124036D01*
G37*
%TO.C,SW14*%
D10*
X191626749Y-131315710D02*
X192758120Y-132447081D01*
X192758120Y-129901497D02*
X191626749Y-131032867D01*
X193040963Y-132447081D02*
X194172333Y-131315710D01*
X194172333Y-131032867D02*
X193040963Y-129901497D01*
X201667665Y-124386064D02*
X202799036Y-125517434D01*
X202799036Y-122971850D02*
X201667665Y-124103221D01*
X203081879Y-125517434D02*
X204213250Y-124386064D01*
X204213250Y-124103221D02*
X203081879Y-122971850D01*
X191626749Y-131315710D02*
G75*
G02*
X191626749Y-131032868I141421J141421D01*
G01*
X192758120Y-129901497D02*
G75*
G02*
X193040962Y-129901497I141421J-141421D01*
G01*
X193040963Y-132447081D02*
G75*
G02*
X192758119Y-132447082I-141422J141421D01*
G01*
X194172333Y-131032867D02*
G75*
G02*
X194172334Y-131315711I-141421J-141422D01*
G01*
X201667665Y-124386064D02*
G75*
G02*
X201667665Y-124103221I141425J141421D01*
G01*
X202799036Y-122971850D02*
G75*
G02*
X203081879Y-122971849I141422J-141423D01*
G01*
X203081879Y-125517434D02*
G75*
G02*
X202799037Y-125517434I-141421J141421D01*
G01*
X204213250Y-124103221D02*
G75*
G02*
X204213250Y-124386064I-141423J-141421D01*
G01*
D11*
X193040963Y-129901497D02*
X194172333Y-131032867D01*
X194172333Y-131315710D01*
X193040963Y-132447081D01*
X192758120Y-132447081D01*
X191626749Y-131315710D01*
X191626749Y-131032867D01*
X192758120Y-129901497D01*
X193040963Y-129901497D01*
G36*
X194172333Y-131032867D02*
G01*
X194172333Y-131315710D01*
X193040963Y-132447081D01*
X192758120Y-132447081D01*
X191626749Y-131315710D01*
X191626749Y-131032867D01*
X192758120Y-129901497D01*
X193040963Y-129901497D01*
X194172333Y-131032867D01*
G37*
X203081879Y-122971850D02*
X204213250Y-124103221D01*
X204213250Y-124386064D01*
X203081879Y-125517434D01*
X202799036Y-125517434D01*
X201667665Y-124386064D01*
X201667665Y-124103221D01*
X202799036Y-122971850D01*
X203081879Y-122971850D01*
G36*
X204213250Y-124103221D02*
G01*
X204213250Y-124386064D01*
X203081879Y-125517434D01*
X202799036Y-125517434D01*
X201667665Y-124386064D01*
X201667665Y-124103221D01*
X202799036Y-122971850D01*
X203081879Y-122971850D01*
X204213250Y-124103221D01*
G37*
%TO.C,SW13*%
D10*
X147900000Y-145700000D02*
X147900000Y-147300000D01*
X148100000Y-147500000D02*
X149700000Y-147500000D01*
X149700000Y-145500000D02*
X148100000Y-145500000D01*
X149900000Y-147300000D02*
X149900000Y-145700000D01*
X159900000Y-147900000D02*
X159900000Y-149500000D01*
X160100000Y-149700000D02*
X161700000Y-149700000D01*
X161700000Y-147700000D02*
X160100000Y-147700000D01*
X161900000Y-149500000D02*
X161900000Y-147900000D01*
X147900000Y-145700000D02*
G75*
G02*
X148100000Y-145500000I200000J0D01*
G01*
X148100000Y-147500000D02*
G75*
G02*
X147900000Y-147300000I0J200000D01*
G01*
X149700000Y-145500000D02*
G75*
G02*
X149900000Y-145700000I0J-200000D01*
G01*
X149900000Y-147300000D02*
G75*
G02*
X149700000Y-147500000I-200000J0D01*
G01*
X159900000Y-147900000D02*
G75*
G02*
X160100000Y-147700000I200001J-1D01*
G01*
X160100000Y-149700000D02*
G75*
G02*
X159900000Y-149500000I1J200001D01*
G01*
X161700000Y-147700000D02*
G75*
G02*
X161900000Y-147900000I-1J-200001D01*
G01*
X161900000Y-149500000D02*
G75*
G02*
X161700000Y-149700000I-200001J1D01*
G01*
D11*
X149900000Y-145700000D02*
X149900000Y-147300000D01*
X149700000Y-147500000D01*
X148100000Y-147500000D01*
X147900000Y-147300000D01*
X147900000Y-145700000D01*
X148100000Y-145500000D01*
X149700000Y-145500000D01*
X149900000Y-145700000D01*
G36*
X149900000Y-145700000D02*
G01*
X149900000Y-147300000D01*
X149700000Y-147500000D01*
X148100000Y-147500000D01*
X147900000Y-147300000D01*
X147900000Y-145700000D01*
X148100000Y-145500000D01*
X149700000Y-145500000D01*
X149900000Y-145700000D01*
G37*
X161900000Y-147900000D02*
X161900000Y-149500000D01*
X161700000Y-149700000D01*
X160100000Y-149700000D01*
X159900000Y-149500000D01*
X159900000Y-147900000D01*
X160100000Y-147700000D01*
X161700000Y-147700000D01*
X161900000Y-147900000D01*
G36*
X161900000Y-147900000D02*
G01*
X161900000Y-149500000D01*
X161700000Y-149700000D01*
X160100000Y-149700000D01*
X159900000Y-149500000D01*
X159900000Y-147900000D01*
X160100000Y-147700000D01*
X161700000Y-147700000D01*
X161900000Y-147900000D01*
G37*
%TO.C,SW16*%
D10*
X189646850Y-35325964D02*
X190778221Y-36457335D01*
X190778221Y-33911750D02*
X189646850Y-35043121D01*
X191061064Y-36457335D02*
X192192434Y-35325964D01*
X192192434Y-35043121D02*
X191061064Y-33911750D01*
X196576497Y-45366880D02*
X197707867Y-46498251D01*
X197707867Y-43952667D02*
X196576497Y-45084037D01*
X197990710Y-46498251D02*
X199122081Y-45366880D01*
X199122081Y-45084037D02*
X197990710Y-43952667D01*
X189646850Y-35325964D02*
G75*
G02*
X189646849Y-35043121I141423J141422D01*
G01*
X190778221Y-33911750D02*
G75*
G02*
X191061064Y-33911750I141421J-141423D01*
G01*
X191061064Y-36457335D02*
G75*
G02*
X190778221Y-36457335I-141421J141425D01*
G01*
X192192434Y-35043121D02*
G75*
G02*
X192192434Y-35325963I-141421J-141421D01*
G01*
X196576497Y-45366880D02*
G75*
G02*
X196576497Y-45084038I141421J141421D01*
G01*
X197707867Y-43952667D02*
G75*
G02*
X197990711Y-43952666I141422J-141421D01*
G01*
X197990710Y-46498251D02*
G75*
G02*
X197707868Y-46498251I-141421J141421D01*
G01*
X199122081Y-45084037D02*
G75*
G02*
X199122082Y-45366881I-141421J-141422D01*
G01*
D11*
X189646850Y-35043121D02*
X190778221Y-33911750D01*
X191061064Y-33911750D01*
X192192434Y-35043121D01*
X192192434Y-35325964D01*
X191061064Y-36457335D01*
X190778221Y-36457335D01*
X189646850Y-35325964D01*
X189646850Y-35043121D01*
G36*
X192192434Y-35043121D02*
G01*
X192192434Y-35325964D01*
X191061064Y-36457335D01*
X190778221Y-36457335D01*
X189646850Y-35325964D01*
X189646850Y-35043121D01*
X190778221Y-33911750D01*
X191061064Y-33911750D01*
X192192434Y-35043121D01*
G37*
X196576497Y-45084037D02*
X197707867Y-43952667D01*
X197990710Y-43952667D01*
X199122081Y-45084037D01*
X199122081Y-45366880D01*
X197990710Y-46498251D01*
X197707867Y-46498251D01*
X196576497Y-45366880D01*
X196576497Y-45084037D01*
G36*
X199122081Y-45084037D02*
G01*
X199122081Y-45366880D01*
X197990710Y-46498251D01*
X197707867Y-46498251D01*
X196576497Y-45366880D01*
X196576497Y-45084037D01*
X197707867Y-43952667D01*
X197990710Y-43952667D01*
X199122081Y-45084037D01*
G37*
%TO.C,SW10*%
D10*
X100586750Y-47346779D02*
X101718121Y-48478150D01*
X101718121Y-45932566D02*
X100586750Y-47063936D01*
X102000964Y-48478150D02*
X103132335Y-47346779D01*
X103132335Y-47063936D02*
X102000964Y-45932566D01*
X110627667Y-40417133D02*
X111759037Y-41548503D01*
X111759037Y-39002919D02*
X110627667Y-40134290D01*
X112041880Y-41548503D02*
X113173251Y-40417133D01*
X113173251Y-40134290D02*
X112041880Y-39002919D01*
X100586750Y-47346779D02*
G75*
G02*
X100586750Y-47063936I141423J141421D01*
G01*
X101718121Y-45932566D02*
G75*
G02*
X102000963Y-45932566I141421J-141421D01*
G01*
X102000964Y-48478150D02*
G75*
G02*
X101718121Y-48478151I-141422J141423D01*
G01*
X103132335Y-47063936D02*
G75*
G02*
X103132335Y-47346779I-141425J-141421D01*
G01*
X110627667Y-40417133D02*
G75*
G02*
X110627666Y-40134289I141421J141422D01*
G01*
X111759037Y-39002919D02*
G75*
G02*
X112041881Y-39002918I141422J-141421D01*
G01*
X112041880Y-41548503D02*
G75*
G02*
X111759038Y-41548503I-141421J141421D01*
G01*
X113173251Y-40134290D02*
G75*
G02*
X113173251Y-40417132I-141421J-141421D01*
G01*
D11*
X101718121Y-48478150D02*
X100586750Y-47346779D01*
X100586750Y-47063936D01*
X101718121Y-45932566D01*
X102000964Y-45932566D01*
X103132335Y-47063936D01*
X103132335Y-47346779D01*
X102000964Y-48478150D01*
X101718121Y-48478150D01*
G36*
X103132335Y-47063936D02*
G01*
X103132335Y-47346779D01*
X102000964Y-48478150D01*
X101718121Y-48478150D01*
X100586750Y-47346779D01*
X100586750Y-47063936D01*
X101718121Y-45932566D01*
X102000964Y-45932566D01*
X103132335Y-47063936D01*
G37*
X111759037Y-41548503D02*
X110627667Y-40417133D01*
X110627667Y-40134290D01*
X111759037Y-39002919D01*
X112041880Y-39002919D01*
X113173251Y-40134290D01*
X113173251Y-40417133D01*
X112041880Y-41548503D01*
X111759037Y-41548503D01*
G36*
X113173251Y-40134290D02*
G01*
X113173251Y-40417133D01*
X112041880Y-41548503D01*
X111759037Y-41548503D01*
X110627667Y-40417133D01*
X110627667Y-40134290D01*
X111759037Y-39002919D01*
X112041880Y-39002919D01*
X113173251Y-40134290D01*
G37*
%TO.C,SW9*%
D10*
X142900000Y-98150000D02*
X142900000Y-99750000D01*
X143100000Y-99950000D02*
X144700000Y-99950000D01*
X144700000Y-97950000D02*
X143100000Y-97950000D01*
X144900000Y-99750000D02*
X144900000Y-98150000D01*
X154900000Y-100350000D02*
X154900000Y-101950000D01*
X155100000Y-102150000D02*
X156700000Y-102150000D01*
X156700000Y-100150000D02*
X155100000Y-100150000D01*
X156900000Y-101950000D02*
X156900000Y-100350000D01*
X142900000Y-98150000D02*
G75*
G02*
X143100000Y-97950000I200001J-1D01*
G01*
X143100000Y-99950000D02*
G75*
G02*
X142900000Y-99750000I1J200001D01*
G01*
X144700000Y-97950000D02*
G75*
G02*
X144900000Y-98150000I-1J-200001D01*
G01*
X144900000Y-99750000D02*
G75*
G02*
X144700000Y-99950000I-200001J1D01*
G01*
X154900000Y-100350000D02*
G75*
G02*
X155100000Y-100150000I200000J0D01*
G01*
X155100000Y-102150000D02*
G75*
G02*
X154900000Y-101950000I0J200000D01*
G01*
X156700000Y-100150000D02*
G75*
G02*
X156900000Y-100350000I0J-200000D01*
G01*
X156900000Y-101950000D02*
G75*
G02*
X156700000Y-102150000I-200000J0D01*
G01*
D11*
X142900000Y-99750000D02*
X142900000Y-98150000D01*
X143100000Y-97950000D01*
X144700000Y-97950000D01*
X144900000Y-98150000D01*
X144900000Y-99750000D01*
X144700000Y-99950000D01*
X143100000Y-99950000D01*
X142900000Y-99750000D01*
G36*
X144900000Y-98150000D02*
G01*
X144900000Y-99750000D01*
X144700000Y-99950000D01*
X143100000Y-99950000D01*
X142900000Y-99750000D01*
X142900000Y-98150000D01*
X143100000Y-97950000D01*
X144700000Y-97950000D01*
X144900000Y-98150000D01*
G37*
X154900000Y-101950000D02*
X154900000Y-100350000D01*
X155100000Y-100150000D01*
X156700000Y-100150000D01*
X156900000Y-100350000D01*
X156900000Y-101950000D01*
X156700000Y-102150000D01*
X155100000Y-102150000D01*
X154900000Y-101950000D01*
G36*
X156900000Y-100350000D02*
G01*
X156900000Y-101950000D01*
X156700000Y-102150000D01*
X155100000Y-102150000D01*
X154900000Y-101950000D01*
X154900000Y-100350000D01*
X155100000Y-100150000D01*
X156700000Y-100150000D01*
X156900000Y-100350000D01*
G37*
%TD*%
D12*
%TO.C,SW7*%
X205105000Y-88265000D03*
X202565000Y-81915000D03*
D13*
X200025000Y-80645000D03*
X200025000Y-90805000D03*
D14*
X200025000Y-85725000D03*
%TD*%
D12*
%TO.C,SW5*%
X149860000Y-138430000D03*
X156210000Y-135890000D03*
D13*
X157480000Y-133350000D03*
X147320000Y-133350000D03*
D14*
X152400000Y-133350000D03*
%TD*%
D12*
%TO.C,SW6*%
X187872011Y-124789114D03*
X190566088Y-118502934D03*
D13*
X189668062Y-115808858D03*
X182483858Y-122993062D03*
D14*
X186075960Y-119400960D03*
%TD*%
D12*
%TO.C,SW8*%
X191464114Y-50252989D03*
X185177934Y-47558912D03*
D13*
X182483858Y-48456938D03*
X189668062Y-55641142D03*
D14*
X186075960Y-52049040D03*
%TD*%
D12*
%TO.C,SW4*%
X113335886Y-121197011D03*
X119622066Y-123891088D03*
D13*
X122316142Y-122993062D03*
X115131938Y-115808858D03*
D14*
X118724040Y-119400960D03*
%TD*%
D12*
%TO.C,SW1*%
X154940000Y-71120000D03*
X148590000Y-73660000D03*
D13*
X147320000Y-76200000D03*
X157480000Y-76200000D03*
D14*
X152400000Y-76200000D03*
%TD*%
D12*
%TO.C,SW2*%
X116927989Y-46660886D03*
X114233912Y-52947066D03*
D13*
X115131938Y-55641142D03*
X122316142Y-48456938D03*
D14*
X118724040Y-52049040D03*
%TD*%
D12*
%TO.C,SW3*%
X99695000Y-83185000D03*
X102235000Y-89535000D03*
D13*
X104775000Y-90805000D03*
X104775000Y-80645000D03*
D14*
X104775000Y-85725000D03*
%TD*%
D15*
%TO.C,SW15*%
X219075000Y-80225000D03*
D12*
X215375000Y-80725000D03*
D16*
X219075000Y-85725000D03*
D12*
X213175000Y-85725000D03*
D15*
X219075000Y-91225000D03*
%TD*%
%TO.C,SW11*%
X85725000Y-91225000D03*
D12*
X89425000Y-90725000D03*
D16*
X85725000Y-85725000D03*
D12*
X91625000Y-85725000D03*
D15*
X85725000Y-80225000D03*
%TD*%
%TO.C,SW12*%
X109142742Y-136760432D03*
D12*
X111405484Y-133790584D03*
D16*
X105253655Y-132871345D03*
D12*
X109425585Y-128699415D03*
D15*
X101364568Y-128982258D03*
%TD*%
%TO.C,SW14*%
X203435432Y-128982258D03*
D12*
X200465584Y-126719516D03*
D16*
X199546345Y-132871345D03*
D12*
X195374415Y-128699415D03*
D15*
X195657258Y-136760432D03*
%TD*%
%TO.C,SW13*%
X157900000Y-152400000D03*
D12*
X157400000Y-148700000D03*
D16*
X152400000Y-152400000D03*
D12*
X152400000Y-146500000D03*
D15*
X146900000Y-152400000D03*
%TD*%
%TO.C,SW16*%
X195657258Y-34689568D03*
D12*
X193394516Y-37659416D03*
D16*
X199546345Y-38578655D03*
D12*
X195374415Y-42750585D03*
D15*
X203435432Y-42467742D03*
%TD*%
%TO.C,SW10*%
X101364568Y-42467742D03*
D12*
X104334416Y-44730484D03*
D16*
X105253655Y-38578655D03*
D12*
X109425585Y-42750585D03*
D15*
X109142742Y-34689568D03*
%TD*%
%TO.C,SW9*%
X146900000Y-95250000D03*
D12*
X147400000Y-98950000D03*
D16*
X152400000Y-95250000D03*
D12*
X152400000Y-101150000D03*
D15*
X157900000Y-95250000D03*
%TD*%
D17*
%TO.C,D16*%
X207784138Y-37411929D03*
X205450686Y-39745381D03*
%TD*%
D18*
%TO.C,D2*%
X126961833Y-53215766D03*
X124628381Y-50882314D03*
%TD*%
D19*
%TO.C,D8*%
X184909234Y-60286833D03*
X187242686Y-57953381D03*
%TD*%
D20*
%TO.C,U1*%
X160465000Y-12405000D03*
X160465000Y-14945000D03*
X160465000Y-17485000D03*
X160465000Y-20025000D03*
X160465000Y-22565000D03*
X160465000Y-25105000D03*
X160465000Y-27645000D03*
X144300000Y-27645000D03*
X144300000Y-25105000D03*
X144300000Y-22565000D03*
X144300000Y-20025000D03*
X144300000Y-17485000D03*
X144300000Y-14945000D03*
X144300000Y-12405000D03*
D15*
X153553000Y-11647000D03*
X151013000Y-11647000D03*
X153553000Y-14187000D03*
X151013000Y-14187000D03*
D21*
X153553000Y-28665000D03*
X151013000Y-28665000D03*
%TD*%
D22*
%TO.C,D10*%
X104086929Y-30340862D03*
X106420381Y-32674314D03*
%TD*%
D23*
%TO.C,D5*%
X147400000Y-126700000D03*
X147400000Y-130000000D03*
%TD*%
D24*
%TO.C,D3*%
X111425000Y-80725000D03*
X108125000Y-80725000D03*
%TD*%
D25*
%TO.C,D1*%
X157400000Y-82850000D03*
X157400000Y-79550000D03*
%TD*%
D22*
%TO.C,D6*%
X177838167Y-118234234D03*
X180171619Y-120567686D03*
%TD*%
D25*
%TO.C,D13*%
X147400000Y-159050000D03*
X147400000Y-155750000D03*
%TD*%
D18*
%TO.C,D14*%
X200713071Y-141109138D03*
X198379619Y-138775686D03*
%TD*%
D23*
%TO.C,D9*%
X157400000Y-88600000D03*
X157400000Y-91900000D03*
%TD*%
D17*
%TO.C,D4*%
X119890766Y-111163167D03*
X117557314Y-113496619D03*
%TD*%
D26*
%TO.C,D11*%
X79075000Y-80725000D03*
X82375000Y-80725000D03*
%TD*%
D24*
%TO.C,D15*%
X225725000Y-90725000D03*
X222425000Y-90725000D03*
%TD*%
D19*
%TO.C,D12*%
X97015862Y-134038071D03*
X99349314Y-131704619D03*
%TD*%
D26*
%TO.C,D7*%
X193375000Y-90725000D03*
X196675000Y-90725000D03*
%TD*%
M02*
