M48
; DRILL file KiCad 10.0.3 date 2026-06-08T12:14:39
; FORMAT={-:-/ absolute / metric / decimal}
; #@! TF.CreationDate,2026-06-08T12:14:39+09:00
; #@! TF.GenerationSoftware,Kicad,Pcbnew,10.0.3
; #@! TF.FileFunction,MixedPlating,1,2
FMAT,2
METRIC
; #@! TA.AperFunction,Plated,PTH,ComponentDrill
T1C0.300
; #@! TA.AperFunction,NonPlated,NPTH,ComponentDrill
T2C1.600
; #@! TA.AperFunction,NonPlated,NPTH,ComponentDrill
T3C1.700
; #@! TA.AperFunction,NonPlated,NPTH,ComponentDrill
T4C3.000
; #@! TA.AperFunction,NonPlated,NPTH,ComponentDrill
T5C3.400
; #@! TA.AperFunction,NonPlated,NPTH,ComponentDrill
T6C4.100
%
G90
G05
T1
X88.225Y-93.025
X88.225Y-95.425
X90.425Y-81.025
X90.425Y-83.425
X90.625Y-93.025
X90.625Y-95.425
X92.825Y-81.025
X92.825Y-83.425
X98.495Y-78.685
X98.495Y-81.085
X100.162Y-47.205
X100.895Y-78.685
X100.895Y-81.085
X101.035Y-91.635
X101.035Y-94.035
X101.86Y-45.508
X101.86Y-48.902
X103.435Y-91.635
X103.435Y-94.035
X103.557Y-47.205
X105.254Y-126.225
X106.951Y-124.527
X106.951Y-127.922
X108.648Y-126.225
X109.305Y-118.864
X110.203Y-40.276
X110.203Y-55.281
X111.002Y-117.167
X111.002Y-120.561
X111.9Y-38.579
X111.9Y-41.973
X111.9Y-53.583
X111.9Y-56.978
X112.183Y-136.265
X112.699Y-118.864
X113.598Y-40.276
X113.598Y-55.281
X113.88Y-134.568
X113.88Y-137.963
X115.577Y-136.265
X117.564Y-44.327
X119.261Y-42.63
X119.261Y-46.024
X120.258Y-126.225
X120.958Y-44.327
X121.956Y-124.527
X121.956Y-127.922
X123.653Y-126.225
X142.7Y-97.75
X142.7Y-100.15
X144.09Y-72.46
X144.09Y-74.86
X145.1Y-97.75
X145.1Y-100.15
X145.36Y-137.23
X145.36Y-139.63
X146.49Y-72.46
X146.49Y-74.86
X147.7Y-145.3
X147.7Y-147.7
X147.76Y-137.23
X147.76Y-139.63
X150.1Y-145.3
X150.1Y-147.7
X154.7Y-99.95
X154.7Y-102.35
X157.04Y-69.92
X157.04Y-72.32
X157.1Y-99.95
X157.1Y-102.35
X158.31Y-134.69
X158.31Y-137.09
X159.44Y-69.92
X159.44Y-72.32
X159.7Y-147.5
X159.7Y-149.9
X160.71Y-134.69
X160.71Y-137.09
X162.1Y-147.5
X162.1Y-149.9
X181.147Y-45.225
X182.844Y-43.528
X182.844Y-46.923
X183.842Y-127.123
X184.542Y-45.225
X185.539Y-125.426
X185.539Y-128.82
X187.236Y-127.123
X189.223Y-35.185
X190.92Y-33.487
X190.92Y-36.882
X191.202Y-116.169
X191.202Y-131.174
X192.101Y-52.586
X192.617Y-35.185
X192.9Y-114.472
X192.9Y-117.867
X192.9Y-129.477
X192.9Y-132.871
X193.798Y-50.889
X193.798Y-54.283
X194.597Y-116.169
X194.597Y-131.174
X195.495Y-52.586
X196.152Y-45.225
X197.849Y-43.528
X197.849Y-46.923
X199.546Y-45.225
X201.243Y-124.245
X201.365Y-77.415
X201.365Y-79.815
X202.94Y-122.548
X202.94Y-125.942
X203.765Y-77.415
X203.765Y-79.815
X203.905Y-90.365
X203.905Y-92.765
X204.638Y-124.245
X206.305Y-90.365
X206.305Y-92.765
X211.975Y-88.025
X211.975Y-90.425
X214.175Y-76.025
X214.175Y-78.425
X214.375Y-88.025
X214.375Y-90.425
X216.575Y-76.025
X216.575Y-78.425
T2
X104.775Y-80.645
X104.775Y-90.805
X115.132Y-55.641
X115.132Y-115.809
X122.316Y-48.457
X122.316Y-122.993
X147.32Y-76.2
X147.32Y-133.35
X157.48Y-76.2
X157.48Y-133.35
X182.484Y-48.457
X182.484Y-122.993
X189.668Y-55.641
X189.668Y-115.809
X200.025Y-80.645
X200.025Y-90.805
T3
X85.725Y-80.225
X85.725Y-91.225
X101.365Y-42.468
X101.365Y-128.982
X109.143Y-34.69
X109.143Y-136.76
X146.9Y-95.25
X146.9Y-152.4
X157.9Y-95.25
X157.9Y-152.4
X195.657Y-34.69
X195.657Y-136.76
X203.435Y-42.468
X203.435Y-128.982
X219.075Y-80.225
X219.075Y-91.225
T4
X89.425Y-90.725
X91.625Y-85.725
X99.695Y-83.185
X102.235Y-89.535
X104.334Y-44.73
X109.426Y-42.751
X109.426Y-128.699
X111.405Y-133.791
X113.336Y-121.197
X114.234Y-52.947
X116.928Y-46.661
X119.622Y-123.891
X147.4Y-98.95
X148.59Y-73.66
X149.86Y-138.43
X152.4Y-101.15
X152.4Y-146.5
X154.94Y-71.12
X156.21Y-135.89
X157.4Y-148.7
X185.178Y-47.559
X187.872Y-124.789
X190.566Y-118.503
X191.464Y-50.253
X193.395Y-37.659
X195.374Y-42.751
X195.374Y-128.699
X200.466Y-126.72
X202.565Y-81.915
X205.105Y-88.265
X213.175Y-85.725
X215.375Y-80.725
T5
X85.725Y-85.725
X105.254Y-38.579
X105.254Y-132.871
X152.4Y-95.25
X152.4Y-152.4
X199.546Y-38.579
X199.546Y-132.871
X219.075Y-85.725
T6
X104.775Y-85.725
X118.724Y-52.049
X118.724Y-119.401
X152.4Y-76.2
X152.4Y-133.35
X186.076Y-52.049
X186.076Y-119.401
X200.025Y-85.725
M30
