%TF.GenerationSoftware,KiCad,Pcbnew,10.0.3*%
%TF.CreationDate,2026-06-08T12:14:34+09:00*%
%TF.ProjectId,PCBAssemblyConverter_sample_pcb,50434241-7373-4656-9d62-6c79436f6e76,rev?*%
%TF.SameCoordinates,Original*%
%TF.FileFunction,Copper,L1,Top*%
%TF.FilePolarity,Positive*%
%FSLAX46Y46*%
G04 Gerber Fmt 4.6, Leading zero omitted, Abs format (unit mm)*
G04 Created by KiCad (PCBNEW 10.0.3) date 2026-06-08 12:14:34*
%MOMM*%
%LPD*%
G01*
G04 APERTURE LIST*
G04 Aperture macros list*
%AMRoundRect*
0 Rectangle with rounded corners*
0 $1 Rounding radius*
0 $2 $3 $4 $5 $6 $7 $8 $9 X,Y pos of 4 corners*
0 Add a 4 corners polygon primitive as box body*
4,1,4,$2,$3,$4,$5,$6,$7,$8,$9,$2,$3,0*
0 Add four circle primitives for the rounded corners*
1,1,$1+$1,$2,$3*
1,1,$1+$1,$4,$5*
1,1,$1+$1,$6,$7*
1,1,$1+$1,$8,$9*
0 Add four rect primitives between the rounded corners*
20,1,$1+$1,$2,$3,$4,$5,0*
20,1,$1+$1,$4,$5,$6,$7,0*
20,1,$1+$1,$6,$7,$8,$9,0*
20,1,$1+$1,$8,$9,$2,$3,0*%
G04 Aperture macros list end*
%TA.AperFunction,SMDPad,CuDef*%
%ADD10RoundRect,0.249000X1.251000X-1.251000X1.251000X1.251000X-1.251000X1.251000X-1.251000X-1.251000X0*%
%TD*%
%TA.AperFunction,ComponentPad*%
%ADD11C,0.500000*%
%TD*%
%TA.AperFunction,SMDPad,CuDef*%
%ADD12RoundRect,0.249000X-1.251000X1.251000X-1.251000X-1.251000X1.251000X-1.251000X1.251000X1.251000X0*%
%TD*%
%TA.AperFunction,SMDPad,CuDef*%
%ADD13RoundRect,0.249000X-1.251000X-1.251000X1.251000X-1.251000X1.251000X1.251000X-1.251000X1.251000X0*%
%TD*%
%TA.AperFunction,SMDPad,CuDef*%
%ADD14RoundRect,0.249000X1.251000X1.251000X-1.251000X1.251000X-1.251000X-1.251000X1.251000X-1.251000X0*%
%TD*%
%TA.AperFunction,SMDPad,CuDef*%
%ADD15RoundRect,0.249000X0.000000X-1.769181X1.769181X0.000000X0.000000X1.769181X-1.769181X0.000000X0*%
%TD*%
%TA.AperFunction,SMDPad,CuDef*%
%ADD16RoundRect,0.249000X0.000000X1.769181X-1.769181X0.000000X0.000000X-1.769181X1.769181X0.000000X0*%
%TD*%
%TA.AperFunction,SMDPad,CuDef*%
%ADD17RoundRect,0.249000X1.769181X0.000000X0.000000X1.769181X-1.769181X0.000000X0.000000X-1.769181X0*%
%TD*%
%TA.AperFunction,SMDPad,CuDef*%
%ADD18RoundRect,0.249000X-1.769181X0.000000X0.000000X-1.769181X1.769181X0.000000X0.000000X1.769181X0*%
%TD*%
G04 APERTURE END LIST*
D10*
%TO.P,SW7,2,2_2*%
%TO.N,Net-(D7-A)*%
X205105000Y-91565000D03*
D11*
X203905000Y-92765000D03*
X203905000Y-90365000D03*
X206305000Y-92765000D03*
X206305000Y-90365000D03*
D12*
%TO.P,SW7,1,1_1*%
%TO.N,unconnected-(SW7-Pad1)*%
X202565000Y-78615000D03*
D11*
X201365000Y-79815000D03*
X201365000Y-77415000D03*
X203765000Y-79815000D03*
X203765000Y-77415000D03*
%TD*%
D13*
%TO.P,SW5,2,2_2*%
%TO.N,Net-(D5-A)*%
X146560000Y-138430000D03*
D11*
X145360000Y-137230000D03*
X147760000Y-137230000D03*
X145360000Y-139630000D03*
X147760000Y-139630000D03*
D14*
%TO.P,SW5,1,1_1*%
%TO.N,unconnected-(SW5-Pad1)*%
X159510000Y-135890000D03*
D11*
X158310000Y-134690000D03*
X160710000Y-134690000D03*
X158310000Y-137090000D03*
X160710000Y-137090000D03*
%TD*%
D15*
%TO.P,SW6,2,2_2*%
%TO.N,Net-(D6-A)*%
X185538559Y-127122566D03*
D11*
X183841503Y-127122566D03*
X185538559Y-125425510D03*
X185538559Y-128819622D03*
X187235615Y-127122566D03*
D16*
%TO.P,SW6,1,1_1*%
%TO.N,unconnected-(SW6-Pad1)*%
X192899540Y-116169482D03*
D11*
X191202484Y-116169482D03*
X192899540Y-114472426D03*
X192899540Y-117866538D03*
X194596597Y-116169482D03*
%TD*%
D17*
%TO.P,SW8,2,2_2*%
%TO.N,Net-(D8-A)*%
X193797566Y-52586441D03*
D11*
X193797566Y-54283497D03*
X192100510Y-52586441D03*
X195494622Y-52586441D03*
X193797566Y-50889385D03*
D18*
%TO.P,SW8,1,1_1*%
%TO.N,unconnected-(SW8-Pad1)*%
X182844482Y-45225460D03*
D11*
X182844482Y-46922516D03*
X181147426Y-45225460D03*
X184541538Y-45225460D03*
X182844482Y-43528403D03*
%TD*%
D18*
%TO.P,SW4,2,2_2*%
%TO.N,Net-(D4-A)*%
X111002434Y-118863559D03*
D11*
X111002434Y-117166503D03*
X112699490Y-118863559D03*
X109305378Y-118863559D03*
X111002434Y-120560615D03*
D17*
%TO.P,SW4,1,1_1*%
%TO.N,unconnected-(SW4-Pad1)*%
X121955518Y-126224540D03*
D11*
X121955518Y-124527484D03*
X123652574Y-126224540D03*
X120258462Y-126224540D03*
X121955518Y-127921597D03*
%TD*%
D14*
%TO.P,SW1,2,2_2*%
%TO.N,Net-(D1-A)*%
X158240000Y-71120000D03*
D11*
X159440000Y-72320000D03*
X157040000Y-72320000D03*
X159440000Y-69920000D03*
X157040000Y-69920000D03*
D13*
%TO.P,SW1,1,1_1*%
%TO.N,unconnected-(SW1-Pad1)*%
X145290000Y-73660000D03*
D11*
X146490000Y-74860000D03*
X144090000Y-74860000D03*
X146490000Y-72460000D03*
X144090000Y-72460000D03*
%TD*%
D16*
%TO.P,SW2,2,2_2*%
%TO.N,Net-(D2-A)*%
X119261441Y-44327434D03*
D11*
X120958497Y-44327434D03*
X119261441Y-46024490D03*
X119261441Y-42630378D03*
X117564385Y-44327434D03*
D15*
%TO.P,SW2,1,1_1*%
%TO.N,unconnected-(SW2-Pad1)*%
X111900460Y-55280518D03*
D11*
X113597516Y-55280518D03*
X111900460Y-56977574D03*
X111900460Y-53583462D03*
X110203403Y-55280518D03*
%TD*%
D12*
%TO.P,SW3,2,2_2*%
%TO.N,Net-(D3-A)*%
X99695000Y-79885000D03*
D11*
X100895000Y-78685000D03*
X100895000Y-81085000D03*
X98495000Y-78685000D03*
X98495000Y-81085000D03*
D10*
%TO.P,SW3,1,1_1*%
%TO.N,unconnected-(SW3-Pad1)*%
X102235000Y-92835000D03*
D11*
X103435000Y-91635000D03*
X103435000Y-94035000D03*
X101035000Y-91635000D03*
X101035000Y-94035000D03*
%TD*%
%TO.P,SW15,1,1_1*%
%TO.N,unconnected-(SW15-Pad1)*%
X216575000Y-76025000D03*
X214175000Y-76025000D03*
D10*
X215375000Y-77225000D03*
D11*
X216575000Y-78425000D03*
X214175000Y-78425000D03*
%TO.P,SW15,2,2_2*%
%TO.N,Net-(D15-A)*%
X214375000Y-88025000D03*
X211975000Y-88025000D03*
D10*
X213175000Y-89225000D03*
D11*
X214375000Y-90425000D03*
X211975000Y-90425000D03*
%TD*%
%TO.P,SW11,1,1_1*%
%TO.N,unconnected-(SW11-Pad1)*%
X88225000Y-95425000D03*
X90625000Y-95425000D03*
D12*
X89425000Y-94225000D03*
D11*
X88225000Y-93025000D03*
X90625000Y-93025000D03*
%TO.P,SW11,2,2_2*%
%TO.N,Net-(D11-A)*%
X90425000Y-83425000D03*
X92825000Y-83425000D03*
D12*
X91625000Y-82225000D03*
D11*
X90425000Y-81025000D03*
X92825000Y-81025000D03*
%TD*%
%TO.P,SW12,1,1_1*%
%TO.N,unconnected-(SW12-Pad1)*%
X113880358Y-137962514D03*
X115577414Y-136265458D03*
D18*
X113880358Y-136265458D03*
D11*
X112183301Y-136265458D03*
X113880358Y-134568401D03*
%TO.P,SW12,2,2_2*%
%TO.N,Net-(D12-A)*%
X106950711Y-127921598D03*
X108647768Y-126224541D03*
D18*
X106950711Y-126224541D03*
D11*
X105253655Y-126224541D03*
X106950711Y-124527485D03*
%TD*%
%TO.P,SW14,1,1_1*%
%TO.N,unconnected-(SW14-Pad1)*%
X204637514Y-124244642D03*
X202940458Y-122547586D03*
D15*
X202940458Y-124244642D03*
D11*
X202940458Y-125941699D03*
X201243401Y-124244642D03*
%TO.P,SW14,2,2_2*%
%TO.N,Net-(D14-A)*%
X194596598Y-131174289D03*
X192899541Y-129477232D03*
D15*
X192899541Y-131174289D03*
D11*
X192899541Y-132871345D03*
X191202485Y-131174289D03*
%TD*%
%TO.P,SW13,1,1_1*%
%TO.N,unconnected-(SW13-Pad1)*%
X162100000Y-149900000D03*
X162100000Y-147500000D03*
D13*
X160900000Y-148700000D03*
D11*
X159700000Y-149900000D03*
X159700000Y-147500000D03*
%TO.P,SW13,2,2_2*%
%TO.N,Net-(D13-A)*%
X150100000Y-147700000D03*
X150100000Y-145300000D03*
D13*
X148900000Y-146500000D03*
D11*
X147700000Y-147700000D03*
X147700000Y-145300000D03*
%TD*%
%TO.P,SW16,1,1_1*%
%TO.N,unconnected-(SW16-Pad1)*%
X190919642Y-33487486D03*
X189222586Y-35184542D03*
D17*
X190919642Y-35184542D03*
D11*
X192616699Y-35184542D03*
X190919642Y-36881599D03*
%TO.P,SW16,2,2_2*%
%TO.N,Net-(D16-A)*%
X197849289Y-43528402D03*
X196152232Y-45225459D03*
D17*
X197849289Y-45225459D03*
D11*
X199546345Y-45225459D03*
X197849289Y-46922515D03*
%TD*%
%TO.P,SW10,1,1_1*%
%TO.N,unconnected-(SW10-Pad1)*%
X100162486Y-47205358D03*
X101859542Y-48902414D03*
D16*
X101859542Y-47205358D03*
D11*
X101859542Y-45508301D03*
X103556599Y-47205358D03*
%TO.P,SW10,2,2_2*%
%TO.N,Net-(D10-A)*%
X110203402Y-40275711D03*
X111900459Y-41972768D03*
D16*
X111900459Y-40275711D03*
D11*
X111900459Y-38578655D03*
X113597515Y-40275711D03*
%TD*%
%TO.P,SW9,1,1_1*%
%TO.N,unconnected-(SW9-Pad1)*%
X142700000Y-97750000D03*
X142700000Y-100150000D03*
D14*
X143900000Y-98950000D03*
D11*
X145100000Y-97750000D03*
X145100000Y-100150000D03*
%TO.P,SW9,2,2_2*%
%TO.N,Net-(D9-A)*%
X154700000Y-99950000D03*
X154700000Y-102350000D03*
D14*
X155900000Y-101150000D03*
D11*
X157100000Y-99950000D03*
X157100000Y-102350000D03*
%TD*%
M02*
