%TF.GenerationSoftware,KiCad,Pcbnew,10.0.3*%
%TF.CreationDate,2026-06-08T12:14:35+09:00*%
%TF.ProjectId,PCBAssemblyConverter_sample_pcb,50434241-7373-4656-9d62-6c79436f6e76,rev?*%
%TF.SameCoordinates,Original*%
%TF.FileFunction,Soldermask,Top*%
%TF.FilePolarity,Negative*%
%FSLAX46Y46*%
G04 Gerber Fmt 4.6, Leading zero omitted, Abs format (unit mm)*
G04 Created by KiCad (PCBNEW 10.0.3) date 2026-06-08 12:14:35*
%MOMM*%
%LPD*%
G01*
G04 APERTURE LIST*
%ADD10C,3.000000*%
%ADD11C,1.600000*%
%ADD12C,4.100000*%
%ADD13C,1.700000*%
%ADD14C,3.400000*%
G04 APERTURE END LIST*
D10*
%TO.C,SW7*%
X205105000Y-88265000D03*
X202565000Y-81915000D03*
D11*
X200025000Y-80645000D03*
X200025000Y-90805000D03*
D12*
X200025000Y-85725000D03*
%TD*%
D10*
%TO.C,SW5*%
X149860000Y-138430000D03*
X156210000Y-135890000D03*
D11*
X157480000Y-133350000D03*
X147320000Y-133350000D03*
D12*
X152400000Y-133350000D03*
%TD*%
D10*
%TO.C,SW6*%
X187872011Y-124789114D03*
X190566088Y-118502934D03*
D11*
X189668062Y-115808858D03*
X182483858Y-122993062D03*
D12*
X186075960Y-119400960D03*
%TD*%
D10*
%TO.C,SW8*%
X191464114Y-50252989D03*
X185177934Y-47558912D03*
D11*
X182483858Y-48456938D03*
X189668062Y-55641142D03*
D12*
X186075960Y-52049040D03*
%TD*%
D10*
%TO.C,SW4*%
X113335886Y-121197011D03*
X119622066Y-123891088D03*
D11*
X122316142Y-122993062D03*
X115131938Y-115808858D03*
D12*
X118724040Y-119400960D03*
%TD*%
D10*
%TO.C,SW1*%
X154940000Y-71120000D03*
X148590000Y-73660000D03*
D11*
X147320000Y-76200000D03*
X157480000Y-76200000D03*
D12*
X152400000Y-76200000D03*
%TD*%
D10*
%TO.C,SW2*%
X116927989Y-46660886D03*
X114233912Y-52947066D03*
D11*
X115131938Y-55641142D03*
X122316142Y-48456938D03*
D12*
X118724040Y-52049040D03*
%TD*%
D10*
%TO.C,SW3*%
X99695000Y-83185000D03*
X102235000Y-89535000D03*
D11*
X104775000Y-90805000D03*
X104775000Y-80645000D03*
D12*
X104775000Y-85725000D03*
%TD*%
D13*
%TO.C,SW15*%
X219075000Y-80225000D03*
D10*
X215375000Y-80725000D03*
D14*
X219075000Y-85725000D03*
D10*
X213175000Y-85725000D03*
D13*
X219075000Y-91225000D03*
%TD*%
%TO.C,SW11*%
X85725000Y-91225000D03*
D10*
X89425000Y-90725000D03*
D14*
X85725000Y-85725000D03*
D10*
X91625000Y-85725000D03*
D13*
X85725000Y-80225000D03*
%TD*%
%TO.C,SW12*%
X109142742Y-136760432D03*
D10*
X111405484Y-133790584D03*
D14*
X105253655Y-132871345D03*
D10*
X109425585Y-128699415D03*
D13*
X101364568Y-128982258D03*
%TD*%
%TO.C,SW14*%
X203435432Y-128982258D03*
D10*
X200465584Y-126719516D03*
D14*
X199546345Y-132871345D03*
D10*
X195374415Y-128699415D03*
D13*
X195657258Y-136760432D03*
%TD*%
%TO.C,SW13*%
X157900000Y-152400000D03*
D10*
X157400000Y-148700000D03*
D14*
X152400000Y-152400000D03*
D10*
X152400000Y-146500000D03*
D13*
X146900000Y-152400000D03*
%TD*%
%TO.C,SW16*%
X195657258Y-34689568D03*
D10*
X193394516Y-37659416D03*
D14*
X199546345Y-38578655D03*
D10*
X195374415Y-42750585D03*
D13*
X203435432Y-42467742D03*
%TD*%
%TO.C,SW10*%
X101364568Y-42467742D03*
D10*
X104334416Y-44730484D03*
D14*
X105253655Y-38578655D03*
D10*
X109425585Y-42750585D03*
D13*
X109142742Y-34689568D03*
%TD*%
%TO.C,SW9*%
X146900000Y-95250000D03*
D10*
X147400000Y-98950000D03*
D14*
X152400000Y-95250000D03*
D10*
X152400000Y-101150000D03*
D13*
X157900000Y-95250000D03*
%TD*%
M02*
